<?xml version="1.0" encoding="UTF-8"?>
<svg id="_Слой_1" data-name="Слой_1" xmlns="http://www.w3.org/2000/svg" version="1.1" viewBox="0 0 64 64">
  <!-- Generator: Adobe Illustrator 29.3.0, SVG Export Plug-In . SVG Version: 2.1.0 Build 146)  -->
  <defs>
    <style>
      .st0 {
        isolation: isolate;
      }

      .st1 {
        fill: #fff;
      }

      .st2 {
        fill: #7f313f;
      }
    </style>
  </defs>
  <rect class="st2" x="0" y="0" width="64" height="64" rx="32" ry="32"/>
  <g class="st0">
    <path class="st1" d="M6.9,42.1c.5-1,.8-1.5,1.2-2.4l5.3-14.8c.3-.9.4-1.5.5-2.4h2.7l6.1,17.1c.4,1,.7,1.5,1.3,2.5h-3.4c-.1-.9-.2-1.4-.5-2.3l-2-5.6c-3.9.4-7.1,2.8-9.1,6.2-.3.7-.4,1.3-.3,1.7h-1.8ZM14.4,23.8l-4.9,14.8c2.1-2.8,4.9-4.6,8.4-5l-3.5-9.8Z"/>
    <path class="st1" d="M40.4,30.4c0,2.4-.5,6-2.5,8.1,1.5.9,2.7,1.3,3.2,1.3v2c-1.5,0-3.2-1-4.5-1.8-1.4,1.2-3.2,1.7-5,1.7-3,0-5.9-1.7-5.9-5s1.2-3.8,2.9-5.1c-.8-1.4-1.4-3-1.4-4.6,0-2.9,2.3-5.1,5.3-5.1s4.6,1.3,4.6,3.7-4.6,3.8-6.7,5.3c1.4,2.8,4.2,5.6,7,7.5,1-1.2,1.1-5,1-8h2ZM28.9,32c-.9.8-1.8,2.1-1.8,3.5,0,2.9,3,5,5.8,5s2.2-.2,3.1-.9c-2.7-1.9-5.4-4.6-7.1-7.6ZM35.3,25.5c0-1.3-1-3.1-2.7-3.1s-3.4,2-3.4,4,.6,2.9,1.2,4.1c1.9-1.5,4.9-2.7,4.9-5Z"/>
    <path class="st1" d="M47.1,23v18.5h5c2.7,0,3.9-.9,4.9-1.7v2.3h-12.8c.2-1,.4-1.5.4-2.6v-14.4c0-1.1-.1-1.6-.4-2.6h12.8v2.3c-1-.8-2.2-1.7-4.9-1.7h-5ZM50.7,32.2c1.3,0,1.9-.7,2.9-1.5v3.2c-1-.8-1.6-1.5-2.9-1.5v-.3Z"/>
  </g>
</svg>